<svg xmlns="http://www.w3.org/2000/svg" width="256" height="256" viewBox="0 0 100 100"><rect width="100" height="100" rx="20" fill="#6ed6e7"></rect><path fill="#fff" d="M35.56 81.50L25.66 81.50Q24.76 81.50 24.13 80.87Q23.50 80.24 23.50 79.25L23.50 79.25L23.50 20.75Q23.50 19.76 24.13 19.13Q24.76 18.50 25.66 18.50L25.66 18.50L35.56 18.50Q36.55 18.50 37.18 19.13Q37.81 19.76 37.81 20.75L37.81 20.75L37.81 43.25L62.20 43.25L62.20 20.75Q62.20 19.76 62.83 19.13Q63.45 18.50 64.36 18.50L64.36 18.50L74.25 18.50Q75.25 18.50 75.88 19.13Q76.50 19.76 76.50 20.75L76.50 20.75L76.50 79.25Q76.50 80.24 75.88 80.87Q75.25 81.50 74.25 81.50L74.25 81.50L64.36 81.50Q63.45 81.50 62.83 80.87Q62.20 80.24 62.20 79.25L62.20 79.25L62.20 56.03L37.81 56.03L37.81 79.25Q37.81 80.24 37.18 80.87Q36.55 81.50 35.56 81.50L35.56 81.50Z"></path></svg>